<svg id="Layer_1" data-name="Layer 1" xmlns="http://www.w3.org/2000/svg" viewBox="0 0 733.59 245.08"><defs><style>.cls-1{fill:#14005c;}</style></defs><path class="cls-1" d="M267.34,67.54h-4.42V180.69l17.66-.6c2,0,2.81.8,2.81,2.81v4.41c0,2-.81,2.81-2.81,2.81l-23.27-.8-23.27.8c-2,0-2.81-.8-2.81-2.81V182.9c0-2,.8-2.81,2.81-2.81l16.85.6V64.94h-17c-2,0-2.81-.81-2.81-2.81V57.72c0-2,.8-2.81,3-2.81H283l35.91,78.44L352.6,54.91h47.54c2,0,2.81.8,2.81,2.81v4.41c0,2-.8,2.81-2.81,2.81H383.69V180.49l15.65-.4c2,0,2.81.8,2.81,2.81v4.41c0,2-.8,2.81-2.81,2.81l-26.28-.8-24.27.8c-2,0-2.81-.8-2.81-2.81V182.9c0-2,.8-2.81,2.81-2.81l14.84.4V67.54h-4.81l-39.73,88.88h-9.42Z"/><path class="cls-1" d="M424.4,140l7.43-.41a112.36,112.36,0,0,0,.6,11.44c1.8,20.86,20.86,29.89,37.71,29.89,23.67,0,31.5-14.64,31.5-28.89,0-17.25-10.63-20.86-24.68-24.07l-19.66-4.41c-20.86-4.62-29.89-18.86-29.89-34.71,0-19.46,13.84-36.11,41.73-36.11,13.44,0,22.87,3,28.69,8.22l6.42-7.22,3.81.6V95.63c0,1.81-.8,2.61-2.61,2.61h-7.62V95.63c0-24.07-10-32.5-28.49-32.5-13.84,0-24.07,6.62-24.07,22.27,0,15,9.63,20.26,23.47,23.07l20.06,4.21c24.68,5.22,32.5,18.06,32.5,34.71,0,23.87-16.45,45.14-49.55,45.14-20.46,0-30.9-6.42-37.72-14.85.81,8.63.81,9.63.81,10.43a1.8,1.8,0,0,1-2,2h-7.22c-.8,0-2-.6-2-2.61l-.4-23.27-2-20.46C421,141,421.8,140.17,424.4,140Z"/><path class="cls-1" d="M626,62.13V57.72c0-2,.8-2.81,2.81-2.81l25.07.8,21.47-.8c2,0,2.81.8,2.81,2.81v4.41c0,2-.8,2.81-2.81,2.81l-16.05-.6v71.21c0,41.33-25.68,57.58-51.15,57.58-35.71,0-56.38-17.86-56.38-52.16V64.34l-15.64.6c-2,0-2.81-.81-2.81-2.81V57.72c0-2,.8-2.81,2.81-2.81l24.67.8,25.88-.8c2,0,2.81.8,2.81,2.81v4.41c0,2-.8,2.81-2.81,2.81l-14.84-.4v74c0,30.9,9.62,43.13,36.51,43.13,21.26,0,37.71-11.83,37.71-46.14V64.34l-17.25.6C626.81,64.94,626,64.13,626,62.13Z"/><path class="cls-1" d="M120.63,61.75a.41.41,0,0,1,.22-.68l3.19-.63a.42.42,0,0,0,.29-.21l1.55-2.86a.41.41,0,0,1,.71,0l1.59,2.84a.43.43,0,0,0,.28.21l3.2.59a.41.41,0,0,1,.22.68l-2.21,2.38a.44.44,0,0,0-.11.33l.43,3.23a.41.41,0,0,1-.58.42l-3-1.36a.36.36,0,0,0-.35,0l-2.93,1.4a.41.41,0,0,1-.59-.42l.39-3.23a.38.38,0,0,0-.11-.33ZM85.24,156.47a2.26,2.26,0,0,0-1.95-1.7c.51-1.1,1.28-3.3.2-4.94-.9-1.37-2.72-1-3.62-.76a5.13,5.13,0,0,0-2.05-2.61,2.64,2.64,0,0,0-2.36-.05,2.81,2.81,0,0,0-1.65,1.77,5.44,5.44,0,0,0,.26,3.37c-.83.46-2.35,1.56-2.09,3.21.31,2,2.32,3,3.42,3.39a2.43,2.43,0,0,0-.27,2.64A4.57,4.57,0,0,0,78,162.58h0c0,.41,2.1,4.51,4.9,3.32s1.71-5.74,1.42-6l0,0A5,5,0,0,0,85.24,156.47Zm34-41.5-.08-14.62,3.65,0s0-7.52,0-9.19c0-2.13,2.84-2.55,2.84-2.55l-.63-3,1.14-14.4a.2.2,0,0,1,.39,0l1.3,14.38-.6,3s2.86.38,2.87,2.51c0,1.66,0,9.19,0,9.19l3.65,0,.09,14.62,7.32,3.61.11,18.27,18.26-.11L163.2,133l0-7.31,3.63-3.67,3.65,0,3.68,3.63.09,16.92-.31.16a7.2,7.2,0,0,0-2.27,2,5.94,5.94,0,0,0-4.69,2.69,7.48,7.48,0,0,0-1,5.4,5.83,5.83,0,0,0-1.19,2.43,6.56,6.56,0,0,0-.11,2.1,6.5,6.5,0,0,0-1.35-.39l-.08-13-3.65,0,.08,13.48a7.23,7.23,0,0,0-2.19,1.56h-.39A6.18,6.18,0,0,0,156,159l-.09-15.11-3.65,0,.09,17.28a7.4,7.4,0,0,0-1.5,4.71l-13.05.08h0l-.09-14.62,0-3.65-3.65,0-3.76,0h0s1.88-1.06,3.24-5.59a.57.57,0,0,0-.74-.71c-2.6,1-6.11-1.74-6.11-1.74s-3.48,2.74-6.09,1.81a.58.58,0,0,0-.74.72c1.41,4.51,3.31,5.55,3.31,5.55h0l-3.75,0-3.66,0,0,3.66.08,14.61-13,.07a7.36,7.36,0,0,0-1.56-4.69l-.09-17.28-3.66,0,.09,15.11a5.45,5.45,0,0,0-1.07-.08h-.39a7.38,7.38,0,0,0-2.21-1.53l-.07-13.48-3.66,0,.07,13a6.15,6.15,0,0,0-1.35.41,6.3,6.3,0,0,0-.13-2.1,5.78,5.78,0,0,0-1.22-2.42,7.42,7.42,0,0,0-1-5.39,6,6,0,0,0-4.72-2.64,7.21,7.21,0,0,0-2.29-2l-.31-.15-.1-16.93,3.64-3.67,3.65,0,3.67,3.63,0,7.31L93.8,137l18.27-.1L112,118.66Zm-32,17.23a2.62,2.62,0,1,0-2.61,2.63A2.63,2.63,0,0,0,87.22,132.2Zm21.37,30.26-.1-18.26-3.65,0,.1,18.26Zm57.5-30.71a2.62,2.62,0,1,0,2.61-2.63A2.62,2.62,0,0,0,166.09,131.75ZM145,144l.11,18.25,3.65,0-.1-18.25Zm-14.7-21.86.08,14.62,3.66,0-.08-14.62Zm-6.93-14.55A5.35,5.35,0,0,0,125,111a.61.61,0,0,1-.42,1h-1.22l0,3.16,6.32,0,0-3.16h-1.21a.6.6,0,0,1-.43-1,5.38,5.38,0,0,0,1.61-3.4c.15-2.47-1.17-2.91-1.9-3s-.11.86.38,1.3-.81.6-1.64.61-2.13-.14-1.64-.59,1.09-1.46.36-1.31S123.14,105.12,123.32,107.59Zm-4,14.61.08,14.62,3.66,0L123,122.18Zm35.42-60.7a18.32,18.32,0,0,0,3,5.06,20.69,20.69,0,0,0,2.69,2.67.32.32,0,0,0,.49-.2,21,21,0,0,0,.17-3.83,17.3,17.3,0,0,0-4.22-10.89,20.69,20.69,0,0,0-2.69-2.67.31.31,0,0,0-.49.2,21,21,0,0,0-.17,3.83A18.67,18.67,0,0,0,154.71,61.5ZM115.9,169.79l21.93-.12L134.15,166,134,151.51l-3.62,0,.08,14.53-7.31,0-.08-14.53-3.62,0,.08,14.53h0ZM144.42,63.63a23,23,0,0,0,9.74,1.92.26.26,0,0,0,.19-.43A23.51,23.51,0,0,0,146.44,59a23.08,23.08,0,0,0-9.75-1.92.27.27,0,0,0-.19.44A23.59,23.59,0,0,0,144.42,63.63Zm10.3,5.58a17.43,17.43,0,0,0-5.81-.28,20.3,20.3,0,0,0-3.67.76.34.34,0,0,0-.12.53,20.16,20.16,0,0,0,3,2.31,16.29,16.29,0,0,0,11.16,2.59,20.3,20.3,0,0,0,3.67-.76.34.34,0,0,0,.12-.53,20.16,20.16,0,0,0-3-2.31A17.56,17.56,0,0,0,154.72,69.21ZM188.37,127a22,22,0,0,0-.58-4,19.72,19.72,0,0,0-2.38-5.81,19,19,0,0,0-4.18-4.62,22.07,22.07,0,0,0-3.33-2.22.34.34,0,0,0-.47.31,22.3,22.3,0,0,0,.59,4,18,18,0,0,0,6.55,10.44,22.89,22.89,0,0,0,3.33,2.22A.34.34,0,0,0,188.37,127Zm-11.08-21.42a18,18,0,0,0,5,3.09,20.27,20.27,0,0,0,3.61,1.12.32.32,0,0,0,.35-.4,21.4,21.4,0,0,0-1.57-3.51,18.06,18.06,0,0,0-3.66-4.66,17.44,17.44,0,0,0-5-3.09,19.65,19.65,0,0,0-3.6-1.13.33.33,0,0,0-.35.41,21.5,21.5,0,0,0,1.56,3.51A18.28,18.28,0,0,0,177.29,105.62Zm6.82,40.66a22.87,22.87,0,0,0,1-4.12,19.27,19.27,0,0,0-2.35-12.71,23.33,23.33,0,0,0-2.37-3.47.35.35,0,0,0-.58.11,23.78,23.78,0,0,0-1,4.12,19.26,19.26,0,0,0,2.35,12.7,23.2,23.2,0,0,0,2.38,3.48A.35.35,0,0,0,184.11,146.28Zm-2.53,7.86c.24-1.65-1.29-2.73-2.13-3.18a5.43,5.43,0,0,0,.23-3.38,2.78,2.78,0,0,0-1.68-1.74,2.59,2.59,0,0,0-2.35.07,5.17,5.17,0,0,0-2,2.63c-.9-.26-2.73-.58-3.62.81-1.06,1.64-.27,3.83.26,4.94a2.25,2.25,0,0,0-1.93,1.71,5,5,0,0,0,.9,3.36l0,0c-.29.29-1.33,4.83,1.49,6s4.88-2.95,4.85-3.37h.06a4.61,4.61,0,0,0,2.83-1.82,2.42,2.42,0,0,0-.31-2.64C179.29,157.14,181.29,156.11,181.58,154.14Zm8.47-23.34a19.79,19.79,0,0,0-1.74,6.13,23.62,23.62,0,0,0-.15,4.12.34.34,0,0,0,.51.25,21.43,21.43,0,0,0,3.11-2.62,19.37,19.37,0,0,0,3.7-5.14,19.83,19.83,0,0,0,1.75-6.13,23.37,23.37,0,0,0,.14-4.12.34.34,0,0,0-.51-.26,22.12,22.12,0,0,0-3.11,2.62A19.44,19.44,0,0,0,190.05,130.8Zm.26-16.81a19.08,19.08,0,0,0-.59,6.1,21.38,21.38,0,0,0,.58,3.91.32.32,0,0,0,.52.15,21.26,21.26,0,0,0,2.48-3,17.87,17.87,0,0,0,3.19-11.61,22.71,22.71,0,0,0-.57-3.92.34.34,0,0,0-.53-.15,21.61,21.61,0,0,0-2.48,3A18.93,18.93,0,0,0,190.31,114ZM163.89,78.56A17.59,17.59,0,0,0,158,78.3a20.08,20.08,0,0,0-3.72.79.34.34,0,0,0-.12.54A21.24,21.24,0,0,0,157.21,82a17.83,17.83,0,0,0,5.45,2.31,17.59,17.59,0,0,0,5.89.26,20.08,20.08,0,0,0,3.72-.79.33.33,0,0,0,.12-.53,19.85,19.85,0,0,0-3-2.33A17.6,17.6,0,0,0,163.89,78.56ZM175,82.75A22,22,0,0,0,177,86a.32.32,0,0,0,.53-.08,22.44,22.44,0,0,0,1.06-3.74,18.84,18.84,0,0,0,.2-6A18.56,18.56,0,0,0,177,70.46a20.67,20.67,0,0,0-2-3.29.32.32,0,0,0-.53.07A22.44,22.44,0,0,0,173.36,71a19.15,19.15,0,0,0-.2,6A18.9,18.9,0,0,0,175,82.75Zm-8.25-7.39a22.61,22.61,0,0,0,2.45,3.15.34.34,0,0,0,.54-.14,22.49,22.49,0,0,0,.68-4,18.27,18.27,0,0,0-3-11.9A21.64,21.64,0,0,0,165,59.36a.32.32,0,0,0-.53.14,22.16,22.16,0,0,0-.68,4,19.5,19.5,0,0,0,.46,6.22A19.22,19.22,0,0,0,166.74,75.36Zm20.4,28.85a21.24,21.24,0,0,0,.91,3.74.32.32,0,0,0,.52.1,21.13,21.13,0,0,0,2.14-3.18,17.44,17.44,0,0,0,2-11.58,21.41,21.41,0,0,0-.91-3.75.32.32,0,0,0-.52-.09,21.13,21.13,0,0,0-2.14,3.17,17.62,17.62,0,0,0-2.05,11.59ZM184,95.55a.32.32,0,0,0,.53,0A20.7,20.7,0,0,0,186.05,92a17.53,17.53,0,0,0-.07-11.7,22.19,22.19,0,0,0-1.56-3.49.32.32,0,0,0-.53,0,20.7,20.7,0,0,0-1.52,3.51,17.37,17.37,0,0,0,.07,11.7A21.28,21.28,0,0,0,184,95.55Zm-15.18-8.19a20.43,20.43,0,0,0-3.75.08.33.33,0,0,0-.21.5,21.11,21.11,0,0,0,2.55,2.82,16.42,16.42,0,0,0,10.52,4.59,20.43,20.43,0,0,0,3.75-.08.33.33,0,0,0,.21-.5A21.11,21.11,0,0,0,179.34,92a17.61,17.61,0,0,0-4.86-3.25A17.33,17.33,0,0,0,168.82,87.36ZM89.71,74.77a20.37,20.37,0,0,0,3.69.72,16.3,16.3,0,0,0,11.12-2.72,19.83,19.83,0,0,0,3-2.34.34.34,0,0,0-.12-.53,20.21,20.21,0,0,0-3.68-.72A16.34,16.34,0,0,0,92.56,71.9a20.51,20.51,0,0,0-3,2.34A.33.33,0,0,0,89.71,74.77ZM81.37,174.83c.94-2.89-3.19-5.06-3.59-5l0-.06a5,5,0,0,0-2-2.87,2.26,2.26,0,0,0-2.56.35c-.49-1.11-1.63-3.14-3.57-3.41-1.64-.22-2.58,1.37-3,2.23a5.07,5.07,0,0,0-3.31-.19,2.61,2.61,0,0,0-1.59,1.75A2.83,2.83,0,0,0,62,170a5.46,5.46,0,0,0,2.72,2c-.2.93-.39,2.79,1,3.69,1.68,1.05,3.76.21,4.8-.35a2.46,2.46,0,0,0,1.81,2,4.62,4.62,0,0,0,3.22-1l.05,0C76,176.61,80.42,177.73,81.37,174.83Zm-21.48-53a21.59,21.59,0,0,0,2.51,3,.33.33,0,0,0,.53-.15,23.75,23.75,0,0,0,.53-3.92,19.19,19.19,0,0,0-.66-6.09,19,19,0,0,0-2.66-5.49,21.48,21.48,0,0,0-2.52-3,.32.32,0,0,0-.52.16,21.59,21.59,0,0,0-.53,3.91,17.9,17.9,0,0,0,3.32,11.58Zm33.77,60.74,0-.05a5.06,5.06,0,0,0-2.53-2.39,2.25,2.25,0,0,0-2.43.88c-.71-1-2.26-2.73-4.21-2.59-1.64.12-2.23,1.87-2.43,2.79a5.18,5.18,0,0,0-3.28.52,2.59,2.59,0,0,0-1.19,2,2.81,2.81,0,0,0,.73,2.31,5.43,5.43,0,0,0,3.08,1.41c0,.95.21,2.82,1.78,3.39,1.86.69,3.73-.57,4.63-1.33A2.43,2.43,0,0,0,90,191.11a4.64,4.64,0,0,0,3-1.62l0,0c.35.21,5,.37,5.28-2.66S94.05,182.5,93.66,182.61Zm-35.81-48.3a19.14,19.14,0,0,0,3.76,5.11A21.54,21.54,0,0,0,64.74,142a.34.34,0,0,0,.51-.26,22.72,22.72,0,0,0-.19-4.12,18.45,18.45,0,0,0-5.57-11.22,21.48,21.48,0,0,0-3.14-2.58.34.34,0,0,0-.5.26A22.7,22.7,0,0,0,56,128.2,19.87,19.87,0,0,0,57.85,134.31Zm7.9,22.92a23.9,23.9,0,0,0,4,1.86.39.39,0,0,0,.47-.43,26,26,0,0,0-1.33-4.32,21.57,21.57,0,0,0-3.61-6A20.92,20.92,0,0,0,59.93,144a23.64,23.64,0,0,0-4-1.85.37.37,0,0,0-.46.42,24.82,24.82,0,0,0,1.33,4.32,20,20,0,0,0,9,10.34Zm34.68,16.32a5,5,0,0,0,.46-3.45,2.27,2.27,0,0,0-2.15-1.45c.39-1.16.88-3.43-.38-4.93-1.07-1.26-2.83-.71-3.69-.32a5.1,5.1,0,0,0-2.35-2.35,2.61,2.61,0,0,0-2.34.23,2.84,2.84,0,0,0-1.44,1.95,5.45,5.45,0,0,0,.67,3.32c-.77.56-2.15,1.82-1.69,3.43.54,1.91,2.66,2.68,3.8,3a2.43,2.43,0,0,0,0,2.66,4.58,4.58,0,0,0,3,1.43h0c0,.41,2.62,4.23,5.26,2.7s1-5.89.69-6.14ZM145,172l7.59,19.88a73.49,73.49,0,0,1-51.37.29l7.36-20A52,52,0,0,0,145,172Zm52.5-30.65a23.39,23.39,0,0,0-4,1.9,20.91,20.91,0,0,0-5.34,4.42,21.53,21.53,0,0,0-3.54,6,24.72,24.72,0,0,0-1.28,4.34.38.38,0,0,0,.47.42,24.12,24.12,0,0,0,4-1.9,20.91,20.91,0,0,0,5.34-4.42,21.49,21.49,0,0,0,3.53-6,25.24,25.24,0,0,0,1.29-4.34A.38.38,0,0,0,197.53,141.35Zm-7.22,23.79a5.15,5.15,0,0,0-3.32.22c-.39-.85-1.35-2.43-3-2.19-1.94.29-3.06,2.33-3.54,3.45a2.27,2.27,0,0,0-2.57-.32,5,5,0,0,0-1.93,2.89l0,.05c-.4,0-4.51,2.2-3.53,5.08s5.44,1.72,5.73,1.43l0,0a4.62,4.62,0,0,0,3.23.94,2.46,2.46,0,0,0,1.79-2c1,.55,3.14,1.37,4.81.29,1.4-.91,1.2-2.77,1-3.7a5.42,5.42,0,0,0,2.69-2.06,2.82,2.82,0,0,0,.21-2.41A2.68,2.68,0,0,0,190.31,165.14Zm-15.19,16.09a5.1,5.1,0,0,0-3.29-.48c-.21-.92-.82-2.66-2.46-2.77-2-.12-3.48,1.64-4.19,2.64a2.27,2.27,0,0,0-2.44-.86,5.07,5.07,0,0,0-2.49,2.43l0,.05c-.39-.11-4.87,1.2-4.51,4.23s4.95,2.81,5.3,2.59l0,0a4.6,4.6,0,0,0,3,1.59,2.44,2.44,0,0,0,2.16-1.56c.91.76,2.78,2,4.64,1.29,1.56-.59,1.75-2.46,1.74-3.41a5.37,5.37,0,0,0,3.06-1.45,2.81,2.81,0,0,0,.71-2.31A2.63,2.63,0,0,0,175.12,181.23Zm-15.77-4.56h.06a4.59,4.59,0,0,0,3-1.46,2.46,2.46,0,0,0,0-2.66c1.14-.29,3.24-1.08,3.77-3,.44-1.61-1-2.86-1.74-3.41a5.46,5.46,0,0,0,.63-3.33,2.78,2.78,0,0,0-1.45-1.93,2.6,2.6,0,0,0-2.35-.21A5.14,5.14,0,0,0,159,163c-.86-.37-2.64-.9-3.69.37-1.24,1.51-.72,3.78-.33,4.93a2.26,2.26,0,0,0-2.12,1.47,5,5,0,0,0,.49,3.45l0,.05c-.31.25-1.89,4.64.77,6.14S159.32,177.09,159.35,176.67ZM83,78.85a.34.34,0,0,0,.54.14,21.19,21.19,0,0,0,2.41-3.18,18.09,18.09,0,0,0,2.84-11.93,23.56,23.56,0,0,0-.72-4,.33.33,0,0,0-.54-.13A21.78,21.78,0,0,0,85.09,63,18.13,18.13,0,0,0,82.26,74.9,21.32,21.32,0,0,0,83,78.85ZM70.76,109.34a17.89,17.89,0,0,0,5-3.15,18.11,18.11,0,0,0,3.61-4.7A22.52,22.52,0,0,0,80.86,98a.33.33,0,0,0-.36-.4,20.11,20.11,0,0,0-3.59,1.16,17.93,17.93,0,0,0-5,3.15,18.27,18.27,0,0,0-3.6,4.7,20.71,20.71,0,0,0-1.53,3.53.32.32,0,0,0,.35.4A20.15,20.15,0,0,0,70.76,109.34Zm-1.4,37.58a.36.36,0,0,0,.58.11,23.6,23.6,0,0,0,2.33-3.5,20.4,20.4,0,0,0,2.21-6.17,20.62,20.62,0,0,0,0-6.57,22.41,22.41,0,0,0-1-4.1.35.35,0,0,0-.57-.11,22.92,22.92,0,0,0-2.34,3.5,19.23,19.23,0,0,0-2.2,12.73A23.67,23.67,0,0,0,69.36,146.92Zm-4.48-19.19a.34.34,0,0,0,.48.3,21,21,0,0,0,3.3-2.25,18.1,18.1,0,0,0,6.44-10.51,21.06,21.06,0,0,0,.54-4,.33.33,0,0,0-.47-.3,21.66,21.66,0,0,0-3.31,2.25,19.17,19.17,0,0,0-4.13,4.67,19.84,19.84,0,0,0-2.31,5.84A23.08,23.08,0,0,0,64.88,127.73ZM62.3,105.59a20.48,20.48,0,0,0,2.17,3.15.31.31,0,0,0,.52-.1,21.11,21.11,0,0,0,.87-3.75,17.47,17.47,0,0,0-2.18-11.56,19.67,19.67,0,0,0-2.18-3.15.31.31,0,0,0-.52.1A20.44,20.44,0,0,0,60.12,94a18.6,18.6,0,0,0,.09,6A18.35,18.35,0,0,0,62.3,105.59ZM98.4,65.87a23.2,23.2,0,0,0,9.72-2A23.63,23.63,0,0,0,116,57.62a.26.26,0,0,0-.19-.43,22.91,22.91,0,0,0-9.73,2,23.57,23.57,0,0,0-7.84,6.21A.27.27,0,0,0,98.4,65.87Zm-27.18,30a19,19,0,0,0,3.75,0,17.36,17.36,0,0,0,5.64-1.4,17.58,17.58,0,0,0,4.83-3.3A19.9,19.9,0,0,0,88,88.37a.32.32,0,0,0-.21-.49,19.61,19.61,0,0,0-3.75,0,16.4,16.4,0,0,0-10.47,4.71A20.53,20.53,0,0,0,71,95.39.33.33,0,0,0,71.22,95.89Zm-2.85.31a.32.32,0,0,0,.53,0,20.7,20.7,0,0,0,1.52-3.51A17.29,17.29,0,0,0,70.36,81a21.46,21.46,0,0,0-1.55-3.49.32.32,0,0,0-.53,0A20.33,20.33,0,0,0,66.76,81a17.29,17.29,0,0,0,.06,11.7A21.46,21.46,0,0,0,68.37,96.2ZM80.5,84.26a20.18,20.18,0,0,0,3.73.75A16.6,16.6,0,0,0,95.54,82.3a20.19,20.19,0,0,0,3-2.36.35.35,0,0,0-.12-.54,20.33,20.33,0,0,0-3.74-.75,16.59,16.59,0,0,0-11.3,2.71,20.19,20.19,0,0,0-3,2.36A.34.34,0,0,0,80.5,84.26ZM92.15,69.61a20.33,20.33,0,0,0,2.67-2.7,18.35,18.35,0,0,0,3-5.1A18.17,18.17,0,0,0,98.91,56a20.94,20.94,0,0,0-.21-3.83.32.32,0,0,0-.49-.2,21,21,0,0,0-2.67,2.7,17.31,17.31,0,0,0-4.09,10.94,21,21,0,0,0,.21,3.83A.32.32,0,0,0,92.15,69.61ZM75.24,86.53a.32.32,0,0,0,.53.08,21.8,21.8,0,0,0,2-3.32,18.44,18.44,0,0,0,1.77-5.75,18.71,18.71,0,0,0-.27-6,21.39,21.39,0,0,0-1.1-3.73.33.33,0,0,0-.53-.07,21.14,21.14,0,0,0-2,3.32,18.7,18.7,0,0,0-1.77,5.75,19,19,0,0,0,.27,6A20.75,20.75,0,0,0,75.24,86.53ZM114.9,189.21h0l-.68,0v-9.48a.54.54,0,0,0-.54-.54h-.46a.53.53,0,0,0-.46.25,12.17,12.17,0,0,1-3.41,3.46.53.53,0,0,0-.15.73l.39.63a.53.53,0,0,0,.34.25.54.54,0,0,0,.41-.08,14.26,14.26,0,0,0,1.28-.92v5.71l-1,0a.72.72,0,0,0-.77.76v.35a.72.72,0,0,0,.78.76l2.2-.06,2.09.06a.72.72,0,0,0,.77-.76V190A.73.73,0,0,0,114.9,189.21Zm9.58-9.54a.56.56,0,0,0-.48-.29h-6.48a.55.55,0,0,0-.54.55v2.75a.73.73,0,0,0,.76.77h.35a.72.72,0,0,0,.76-.77v-.81l3.53,0a65.63,65.63,0,0,1-4.33,7.59.57.57,0,0,0-.09.32l0,.41a.51.51,0,0,0,.28.45l.9.49a.48.48,0,0,0,.26.07l.16,0,.36-.12a.55.55,0,0,0,.33-.27,108,108,0,0,0,4.6-10,.49.49,0,0,0,0-.44Zm5.6,3.2a4.36,4.36,0,0,0-1.39.21l.08-1c.68,0,1.56,0,2.09,0a3,3,0,0,0,3.08-2.8.55.55,0,0,0-.35-.6l-.5-.17a.55.55,0,0,0-.66.25c-.4.76-.4.76-1.34.83-.76,0-2,0-2.93,0h-.68a.54.54,0,0,0-.54.54v.09l-.44,4.9a.52.52,0,0,0,.13.42.56.56,0,0,0,.4.17h.86a.55.55,0,0,0,.43-.21l.15-.21c.2-.33.62-.49,1.38-.49s1.49.24,1.49,2c0,2.32-.92,2.64-1.91,2.64a2.48,2.48,0,0,1-1-.17,1.62,1.62,0,0,0,.35-1,1.44,1.44,0,0,0-1.49-1.58,1.6,1.6,0,0,0-1.58,1.76c0,1.64,1.55,2.83,3.67,2.83a4.33,4.33,0,0,0,4.55-4.51A3.59,3.59,0,0,0,130.08,182.87Zm10.2,0a4.25,4.25,0,0,0-1.38.21l.07-1c.67,0,1.57,0,2.09,0a3,3,0,0,0,3.08-2.8.54.54,0,0,0-.35-.6l-.5-.17a.55.55,0,0,0-.66.25c-.39.76-.39.76-1.34.83-.76,0-2,0-2.93,0h-.68a.54.54,0,0,0-.54.54v.09l-.44,4.9a.52.52,0,0,0,.13.42.56.56,0,0,0,.4.17h.86a.55.55,0,0,0,.43-.21l.15-.21c.2-.33.62-.49,1.39-.49s1.48.24,1.48,2c0,2.32-.92,2.64-1.91,2.64a2.48,2.48,0,0,1-.95-.17,1.62,1.62,0,0,0,.35-1,1.44,1.44,0,0,0-1.49-1.58,1.6,1.6,0,0,0-1.57,1.76c0,1.64,1.54,2.83,3.66,2.83a4.33,4.33,0,0,0,4.55-4.51A3.59,3.59,0,0,0,140.28,182.87Z"/></svg>